# xmcd
#
# Track frame offsets:
#	150
#	15363
#	26811
#	41183
#	56347
#	67237
#	82577
#	96726
#	109183
#	125033
#	137299
#	147368
#
# Disc length: 2196 seconds
#
# Revision: 1
# Processed by: cddbd v1.5.1PL0 Copyright (c) Steve Scherf et al.
# Submitted via: audiograbber 1.80
#
DISCID=a708920c
DTITLE=Big Bull Band - A Tribute To Waylon Jennings
DYEAR=1900
DGENRE=
TTITLE0=T For Texas
TTITLE1=Mamas Don't Let Your Babies...
TTITLE2=Wrong
TTITLE3=Honky Tonk Heroes
TTITLE4=Only Daddy That'll Walk The Line
TTITLE5=Tonight The Bottle Let Me Down
TTITLE6=Storms Never Last
TTITLE7=Are You Sure Hank Done It This Way
TTITLE8=Drinking And Dreaming
TTITLE9=Working Without A Net
TTITLE10=You Went Out With Rock'n Roll
TTITLE11=Lonesome, On'ry And Mean
EXTD=
EXTT0=
EXTT1=
EXTT2=
EXTT3=
EXTT4=
EXTT5=
EXTT6=
EXTT7=
EXTT8=
EXTT9=
EXTT10=
EXTT11=
PLAYORDER=
